<svg width="1406" height="1000" viewBox="0 0 1406 1000" fill="none" xmlns="http://www.w3.org/2000/svg">
<rect width="1406" height="1000" fill="white"/>
<line y1="-0.5" x2="57.5707" y2="-0.5" transform="matrix(0.221979 1.06549 -0.848915 -0.344009 1365.87 729.106)" stroke="black"/>
<line y1="-0.5" x2="32.4538" y2="-0.5" transform="matrix(0.356897 -1.0023 0.708972 0.672865 1380.09 792.142)" stroke="black"/>
<line y1="-0.5" x2="23.0179" y2="-0.5" transform="matrix(-0.459687 -0.945325 0.889215 -0.0695739 1402.25 781.373)" stroke="black"/>
<line y1="-0.5" x2="40.4772" y2="-0.5" transform="matrix(-0.0386412 1.09635 -0.890963 -0.0476502 915.034 499.848)" stroke="black"/>
<line y1="-0.5" x2="31.0914" y2="-0.5" transform="matrix(0.477384 -0.922218 0.754457 0.592616 914.251 545.149)" stroke="black"/>
<line y1="-0.5" x2="13.548" y2="-0.5" transform="matrix(-0.299767 -1.03695 0.837577 -0.367415 933.155 530.524)" stroke="black"/>
<line y1="-0.5" x2="105.736" y2="-0.5" transform="matrix(-0.652704 0.757613 -0.960382 -0.278686 153 232)" stroke="black"/>
<line y1="-0.5" x2="108.1" y2="-0.5" transform="matrix(0.567491 0.82338 -0.974097 0.226133 83.9857 240.901)" stroke="black"/>
<line y1="-0.5" x2="63.8766" y2="-0.5" transform="matrix(0.960382 0.278686 -0.652704 0.757613 83.9857 312.107)" stroke="black"/>
<path d="M87.0172 311.218L112.576 282.577L143.781 326.842L136.61 325.777L87.0172 311.218Z" fill="#C8F031"/>
<line y1="-0.5" x2="53.5291" y2="-0.5" transform="matrix(0.0809135 0.996721 -0.992498 0.122259 130.741 894.664)" stroke="black"/>
<line y1="-0.5" x2="43.4148" y2="-0.5" transform="matrix(-0.751503 0.65973 -0.50077 -0.86558 148.864 905.335)" stroke="black"/>
<rect width="17.3916" height="19.9567" transform="matrix(0.988707 -0.149861 0.0993937 0.995048 116.664 934.618)" fill="#01CC65"/>
<line y1="-0.5" x2="21.4524" y2="-0.5" transform="matrix(0.100956 0.994891 -0.988352 0.152186 116.664 933.346)" stroke="black"/>
<line y1="-0.5" x2="17.5291" y2="-0.5" transform="matrix(-0.988352 0.152186 -0.100956 -0.994891 136.155 950.686)" stroke="black"/>
<line x1="135.655" y1="950.686" x2="135.655" y2="945.35" stroke="black"/>
<path d="M129.731 936.152L117.257 934.657L132.927 921.225L129.731 936.152Z" fill="#01CC65"/>
<path d="M133.96 932.057L125.397 934.765L133.163 921.21L133.96 932.057Z" fill="#01CC65"/>
<line y1="-0.5" x2="48.8257" y2="-0.5" transform="matrix(-0.689958 -0.695279 0.565053 -0.84926 1042.75 853.228)" stroke="black"/>
<line y1="-0.5" x2="44.9462" y2="-0.5" transform="matrix(0.148058 -1.08239 0.879446 0.181828 1023.8 861.461)" stroke="black"/>
<rect width="19.4376" height="18.2188" transform="matrix(-0.549207 0.864862 -0.702642 -0.675765 1029.78 812.73)" fill="#01CC65"/>
<line y1="-0.5" x2="19.5846" y2="-0.5" transform="matrix(-0.703698 -0.674099 0.547854 -0.866161 1030.51 813.63)" stroke="black"/>
<line y1="-0.5" x2="19.5888" y2="-0.5" transform="matrix(0.547854 -0.866161 0.703698 0.674099 1006.76 818.337)" stroke="black"/>
<line y1="-0.5" x2="4.85833" y2="-0.5" transform="matrix(0.630298 0.776353 -0.630886 0.775876 1006.76 818.337)" stroke="black"/>
<path d="M1019.65 823.02L1029.34 813.218L1025.96 836.355L1019.65 823.02Z" fill="#01CC65"/>
<path d="M1019.01 829.597L1023.52 820.228L1025.8 836.57L1019.01 829.597Z" fill="#01CC65"/>
<line y1="-0.5" x2="53.4936" y2="-0.5" transform="matrix(-0.0298734 -1.00168 0.995782 -0.0450635 18.0869 107.916)" stroke="black"/>
<line y1="-0.5" x2="43.4272" y2="-0.5" transform="matrix(0.783482 -0.600019 0.455689 0.902895 0.544983 95.8625)" stroke="black"/>
<rect width="17.4088" height="19.9435" transform="matrix(-0.993423 0.0728769 -0.0484144 -1.00144 34.1758 69.1324)" fill="#FEE145"/>
<line y1="-0.5" x2="21.4369" y2="-0.5" transform="matrix(-0.0499829 -1.0014 0.993189 -0.0752229 34.1108 70.4025)" stroke="black"/>
<line y1="-0.5" x2="17.5463" y2="-0.5" transform="matrix(0.993189 -0.0752229 0.0499829 1.0014 15.5444 51.5866)" stroke="black"/>
<line y1="-0.5" x2="5.33144" y2="-0.5" transform="matrix(-0.0511016 0.998693 -0.996999 -0.0774109 15.5444 51.5866)" stroke="black"/>
<path d="M21.2135 66.589L33.5862 69.0477L17.2611 81.2393L21.2135 66.589Z" fill="#FEE145"/>
<path d="M16.7834 70.3487L25.4679 68.3088L17.0253 81.2351L16.7834 70.3487Z" fill="#FEE145"/>
<line y1="-0.5" x2="94.6666" y2="-0.5" transform="matrix(-0.918253 -0.137297 -0.028307 -1.04366 1195.44 951.625)" stroke="black"/>
<line y1="-0.5" x2="79.1628" y2="-0.5" transform="matrix(0.565613 -0.903686 0.58498 0.754714 1138.85 988.936)" stroke="black"/>
<line y1="-0.5" x2="66.7706" y2="-0.5" transform="matrix(-0.847555 0.558797 -0.371899 -0.919878 1195.44 951.625)" stroke="black"/>
<path d="M1160.81 954.096L1194.75 952.153L1139.58 987.88L1160.81 954.096Z" fill="#3463E5"/>
<path d="M1164.14 948.194L1194.77 952.127L1145.57 978.59L1164.14 948.194Z" fill="#3463E5"/>
<line y1="-0.5" x2="39.8397" y2="-0.5" transform="matrix(-0.739417 0.673247 -0.796724 -0.604343 467.774 924.966)" stroke="black"/>
<line y1="-0.5" x2="47.9078" y2="-0.5" transform="matrix(0.771417 0.636329 -0.761371 0.648317 401.096 921.965)" stroke="black"/>
<line y1="-0.5" x2="46.6734" y2="-0.5" transform="matrix(-0.150334 0.988635 -0.999906 -0.0136879 401.592 921.821)" stroke="black"/>
<line y1="-0.5" x2="39.8397" y2="-0.5" transform="matrix(0.440109 0.897944 -0.802702 0.59638 57.6921 668.524)" stroke="black"/>
<line y1="-0.5" x2="47.9078" y2="-0.5" transform="matrix(0.826354 -0.563151 0.410042 0.912067 36.1989 731.715)" stroke="black"/>
<line y1="-0.5" x2="46.6734" y2="-0.5" transform="matrix(0.907385 0.420301 -0.292232 0.956348 36.1989 731.198)" stroke="black"/>
</svg>
