<svg width="156" height="134" viewBox="0 0 156 134" fill="none" xmlns="http://www.w3.org/2000/svg">
<mask id="path-1-inside-1_3_63" fill="white">
<path d="M113.085 28.7228L156 94.5551L89.0477 134L46.1325 68.1677L113.085 28.7228Z"/>
</mask>
<path d="M113.085 28.7228L156 94.5551L89.0477 134L46.1325 68.1677L113.085 28.7228Z" fill="#FEE145"/>
<path d="M113.085 28.7228L113.946 28.2152L113.4 27.3775L112.539 27.8851L113.085 28.7228ZM156 94.5551L158.73 98.7437L159.592 98.2361L156.862 94.0475L156 94.5551ZM89.0477 134L88.1861 134.508L90.9166 138.696L91.7782 138.189L89.0477 134ZM46.1325 68.1677L45.5864 67.33L44.7248 67.8376L45.2709 68.6753L46.1325 68.1677ZM112.223 29.2304L155.138 95.0627L156.862 94.0475L113.946 28.2152L112.223 29.2304ZM153.269 90.3665L86.3172 129.811L91.7782 138.189L158.73 98.7437L153.269 90.3665ZM89.9093 133.492L46.9941 67.6601L45.2709 68.6753L88.1861 134.508L89.9093 133.492ZM46.6786 69.0054L113.631 29.5605L112.539 27.8851L45.5864 67.33L46.6786 69.0054Z" fill="black" mask="url(#path-1-inside-1_3_63)"/>
<path d="M35.3999 84.9387L37.9244 21.1987L96.2472 52.7323L35.3999 84.9387Z" fill="#01CC65" stroke="black" stroke-width="2"/>
<path d="M79.1271 108.342V74.7424H93.8631C96.1991 74.7424 98.3271 75.2544 100.247 76.2784C102.199 77.3024 103.735 78.7264 104.855 80.5504C106.007 82.3744 106.583 84.5024 106.583 86.9344C106.583 89.3344 106.007 91.4624 104.855 93.3184C103.735 95.1424 102.199 96.5824 100.247 97.6384C98.3271 98.6624 96.1991 99.1744 93.8631 99.1744H88.2951V108.342H79.1271ZM88.2951 91.7824H92.8551C93.6871 91.7824 94.4391 91.5904 95.1111 91.2064C95.7831 90.8224 96.3111 90.2784 96.6951 89.5744C97.1111 88.8384 97.3191 87.9744 97.3191 86.9824C97.3191 85.9584 97.1111 85.0944 96.6951 84.3904C96.3111 83.6544 95.7671 83.1104 95.0631 82.7584C94.3911 82.3744 93.6551 82.1824 92.8551 82.1824H88.2951V91.7824Z" fill="black"/>
<path d="M105.36 108.342V100.902H119.664C120.272 100.902 120.784 100.774 121.2 100.518C121.648 100.262 122 99.9104 122.256 99.4624C122.512 99.0144 122.64 98.5344 122.64 98.0224C122.64 97.4784 122.512 96.9824 122.256 96.5344C122 96.0864 121.648 95.7344 121.2 95.4784C120.784 95.2224 120.272 95.0944 119.664 95.0944H114.912C112.896 95.0944 111.072 94.6944 109.44 93.8944C107.808 93.0944 106.496 91.9584 105.504 90.4864C104.544 88.9824 104.064 87.1744 104.064 85.0624C104.064 82.9824 104.528 81.1744 105.456 79.6384C106.384 78.0704 107.632 76.8704 109.2 76.0384C110.768 75.1744 112.512 74.7424 114.432 74.7424H129.504V82.1824H115.584C115.072 82.1824 114.608 82.3104 114.192 82.5664C113.808 82.7904 113.504 83.0944 113.28 83.4784C113.056 83.8624 112.944 84.2944 112.944 84.7744C112.944 85.2544 113.056 85.7024 113.28 86.1184C113.504 86.5024 113.808 86.8224 114.192 87.0784C114.608 87.3024 115.072 87.4144 115.584 87.4144H120.624C122.832 87.4144 124.752 87.8304 126.384 88.6624C128.048 89.4944 129.328 90.6624 130.224 92.1664C131.12 93.6384 131.568 95.3824 131.568 97.3984C131.568 99.7024 131.088 101.686 130.128 103.35C129.2 104.982 127.936 106.23 126.336 107.094C124.768 107.926 123.024 108.342 121.104 108.342H105.36Z" fill="black"/>
</svg>
